<svg xmlns="http://www.w3.org/2000/svg" viewBox="-8 -8 378.03999999999996 136" width="378.03999999999996" height="136"><defs><clipPath id="cp"><rect x="-30" y="0" width="200" height="100"/></clipPath></defs><g transform="translate(0 0) scale(1.0)"><mask id="sm"><rect width="120" height="120" fill="#fff"/><g transform="translate(10.6 0) skewX(-10)"><polygon fill="#000" points="30,26 90,26 90,42 46,42 46,52 82,52 82,68 46,68 46,78 90,78 90,94 30,94"/></g></mask><polygon points="18,0 120,0 120,102 102,120 0,120 0,18" fill="#CF8B3E" mask="url(#sm)"/></g><g transform="translate(150.00 12) scale(0.62)" clip-path="url(#cp)"><path d="M60 7H7V93H60M7 50H48" fill="none" stroke="#ECE8E1" stroke-width="14" stroke-linejoin="miter" stroke-miterlimit="40"/></g><g transform="translate(190.92 12) scale(0.62)" clip-path="url(#cp)"><path d="M6.3 -10L35 93L63.7 -10" fill="none" stroke="#ECE8E1" stroke-width="14" stroke-linejoin="miter" stroke-miterlimit="40"/></g><g transform="translate(231.84 12) scale(0.62)" clip-path="url(#cp)"><path d="M6.3 110L35 7L63.7 110" fill="none" stroke="#ECE8E1" stroke-width="14" stroke-linejoin="miter" stroke-miterlimit="40"/></g><g transform="translate(277.72 12) scale(0.62)" clip-path="url(#cp)"><path d="M6.3 110L35 7L63.7 110" fill="none" stroke="#ECE8E1" stroke-width="14" stroke-linejoin="miter" stroke-miterlimit="40"/></g><g transform="translate(324.84 12) scale(0.62)" clip-path="url(#cp)"><path d="M7 7H53L7 93H53" fill="none" stroke="#ECE8E1" stroke-width="14" stroke-linejoin="miter" stroke-miterlimit="40"/></g><g transform="translate(150.00 88.0) scale(0.2)" clip-path="url(#cp)"><path d="M59 14V7H7V93H59V50H31" fill="none" stroke="#9A9689" stroke-width="14" stroke-linejoin="miter" stroke-miterlimit="40"/></g><g transform="translate(191.05 88.0) scale(0.2)" clip-path="url(#cp)"><path d="M6.3 110L35 7L63.7 110" fill="none" stroke="#9A9689" stroke-width="14" stroke-linejoin="miter" stroke-miterlimit="40"/></g><g transform="translate(232.90 88.0) scale(0.2)" clip-path="url(#cp)"><path d="M9 93V7L39 62L69 7V93" fill="none" stroke="#9A9689" stroke-width="14" stroke-linejoin="bevel" stroke-miterlimit="40"/></g><g transform="translate(276.34 88.0) scale(0.2)" clip-path="url(#cp)"><path d="M7 7V93" fill="none" stroke="#9A9689" stroke-width="14" stroke-linejoin="miter" stroke-miterlimit="40"/></g><g transform="translate(306.99 88.0) scale(0.2)" clip-path="url(#cp)"><path d="M9 93V7L61 93V7" fill="none" stroke="#9A9689" stroke-width="14" stroke-linejoin="bevel" stroke-miterlimit="40"/></g><g transform="translate(348.84 88.0) scale(0.2)" clip-path="url(#cp)"><path d="M59 14V7H7V93H59V50H31" fill="none" stroke="#9A9689" stroke-width="14" stroke-linejoin="miter" stroke-miterlimit="40"/></g></svg>